<?xml version="1.0" encoding="UTF-8"?>
<!DOCTYPE svg PUBLIC "-//W3C//DTD SVG 1.1//EN" "http://www.w3.org/Graphics/SVG/1.1/DTD/svg11.dtd">
<!-- Creator: CorelDRAW X8 -->
<svg xmlns="http://www.w3.org/2000/svg" xml:space="preserve" width="58.2709mm" height="20.0551mm" version="1.1" style="shape-rendering:geometricPrecision; text-rendering:geometricPrecision; image-rendering:optimizeQuality; fill-rule:evenodd; clip-rule:evenodd"
viewBox="0 0 5762 1983"
 xmlns:xlink="http://www.w3.org/1999/xlink">
 <defs>
  <style type="text/css">
   <![CDATA[
    .fil6 {fill:#2B2A29;fill-rule:nonzero}
    .fil4 {fill:#FCC324;fill-rule:nonzero}
    .fil1 {fill:#F49A1F;fill-rule:nonzero}
    .fil2 {fill:#EB5E44;fill-rule:nonzero}
    .fil3 {fill:#C92543;fill-rule:nonzero}
    .fil0 {fill:#972547;fill-rule:nonzero}
    .fil5 {fill:#5E284C;fill-rule:nonzero}
   ]]>
  </style>
 </defs>
 <g id="__x0023_Layer_x0020_1">
  <metadata id="CorelCorpID_0Corel-Layer"/>
  <path class="fil0" d="M1940 61c-38,39 -57,87 -57,141 0,55 20,103 59,143 39,40 88,60 144,60 55,0 103,-20 143,-59 40,-39 60,-88 60,-144 0,-57 -20,-105 -60,-144 -40,-38 -88,-58 -143,-58 -58,0 -107,20 -146,61z"/>
  <polygon class="fil1" points="2472,1657 2472,1983 1719,1983 1719,1657 1919,1657 1919,916 1719,916 1719,591 2272,591 2272,1657 "/>
  <path class="fil2" d="M2472 1657l0 326 -440 0c-119,-85 -225,-187 -313,-303l0 -23 200 0 0 -741 -200 0 0 -325 553 0 0 1024c10,14 20,28 30,42l170 0z"/>
  <path class="fil3" d="M2302 1657l170 0 0 326 -179 0c-147,-105 -275,-237 -374,-389l0 -678 -200 0 0 -325 553 0 0 1024c10,14 20,28 30,42z"/>
  <path class="fil0" d="M2037 591l235 0 0 1024c-158,-233 -250,-513 -250,-815 0,-71 5,-141 15,-209z"/>
  <path class="fil0" d="M2302 1657l170 0 0 193c-62,-59 -119,-123 -170,-193z"/>
  <path class="fil4" d="M1201 1546c-47,48 -98,80 -155,97 -32,9 -66,14 -102,14 -95,0 -177,-34 -251,-105 -72,-69 -108,-162 -108,-283 0,-134 37,-232 111,-300 40,-37 82,-64 128,-81 40,-16 82,-23 127,-23 52,0 100,9 144,29 39,16 74,40 108,71 71,65 106,157 106,280 0,103 -23,188 -70,255 -12,17 -24,32 -38,46zm278 -813l0 0c-41,-42 -86,-78 -134,-106 -65,-39 -137,-66 -213,-80 -44,-8 -89,-13 -136,-13 -47,0 -93,5 -136,14 -104,21 -199,66 -283,137l0 -679 -577 0 0 325 229 0 0 1306 -229 0 0 325 577 0 0 -121c16,12 33,23 51,35 19,12 39,24 61,35 92,48 195,72 306,72 3,0 6,0 9,0l0 0c100,-1 191,-21 273,-58 61,-28 116,-65 166,-112 14,-14 28,-28 42,-43 29,-33 55,-67 77,-103 75,-120 112,-259 112,-415 0,-213 -65,-388 -195,-519z"/>
  <path class="fil1" d="M1201 1546c-47,48 -98,80 -155,97 -32,9 -66,14 -102,14 -95,0 -177,-34 -251,-105 -72,-69 -108,-162 -108,-283 0,-134 37,-232 111,-300 40,-37 82,-64 128,-81 40,-16 82,-23 127,-23 52,0 100,9 144,29 39,16 74,40 108,71 71,65 106,157 106,280 0,103 -23,188 -70,255 -12,17 -24,32 -38,46zm-972 -535l0 0c32,334 178,636 399,865 19,12 39,24 61,35 92,48 195,72 306,72 3,0 6,0 9,0l0 0c100,-1 191,-21 273,-58 61,-28 116,-65 166,-112 14,-14 28,-28 42,-43 29,-33 55,-67 77,-103 75,-120 112,-259 112,-415 0,-213 -65,-388 -195,-519 -41,-42 -86,-78 -134,-106 -65,-39 -137,-66 -213,-80 -44,-8 -89,-13 -136,-13 -47,0 -93,5 -136,14 -104,21 -199,66 -283,137l0 -679 -68 0c-154,206 -254,455 -280,725 -4,46 -6,93 -6,140l6 140z"/>
  <path class="fil2" d="M1201 1546c-47,48 -98,80 -155,97 -32,9 -66,14 -102,14 -95,0 -177,-34 -251,-105 -72,-69 -108,-162 -108,-283 0,-134 37,-232 111,-300 40,-37 82,-64 128,-81 40,-16 82,-23 127,-23 52,0 100,9 144,29 39,16 74,40 108,71 71,65 106,157 106,280 0,103 -23,188 -70,255 -12,17 -24,32 -38,46zm278 -813l0 0c-41,-42 -86,-78 -134,-106 -65,-39 -137,-66 -213,-80 -44,-8 -89,-13 -136,-13 -47,0 -93,5 -136,14 -104,21 -199,66 -283,137l0 -327c-60,160 -93,332 -93,513 0,447 202,846 520,1112l0 0c100,-1 191,-21 273,-58 61,-28 116,-65 166,-112 14,-14 28,-28 42,-43 29,-33 55,-67 77,-103 75,-120 112,-259 112,-415 0,-213 -65,-388 -195,-519z"/>
  <path class="fil3" d="M1674 1252c0,156 -37,295 -112,415 -22,36 -48,70 -77,103 -14,15 -28,29 -42,43 -50,47 -105,84 -166,112 -88,-84 -166,-179 -231,-282 57,-17 108,-49 155,-97 14,-14 26,-29 38,-46 47,-67 70,-152 70,-255 0,-123 -35,-215 -106,-280 -34,-31 -69,-55 -108,-71 -44,-20 -92,-29 -144,-29 -45,0 -87,7 -127,23 -1,-6 -1,-11 -1,-17 0,-111 13,-219 37,-323 43,-9 89,-14 136,-14 47,0 92,5 136,13 76,14 148,41 213,80 48,28 93,64 134,106 130,131 195,306 195,519z"/>
  <path class="fil0" d="M1674 1252c0,156 -37,295 -112,415 -22,36 -48,70 -77,103 -14,15 -28,29 -42,43 -81,-95 -150,-200 -204,-313 47,-67 70,-152 70,-255 0,-123 -35,-215 -106,-280 -34,-31 -69,-55 -108,-71 0,-8 0,-15 0,-23 0,-111 13,-220 37,-324 76,14 148,41 213,80 48,28 93,64 134,106 130,131 195,306 195,519z"/>
  <path class="fil5" d="M1674 1252c0,156 -37,295 -112,415 -150,-229 -238,-502 -238,-796 0,-83 7,-165 21,-244 48,28 93,64 134,106 130,131 195,306 195,519z"/>
  <path class="fil6" d="M5396 1975c215,0 366,-142 366,-414l0 -945 -118 0 0 945c0,207 -102,299 -248,299 -145,0 -247,-92 -247,-299l0 -945 -119 0 0 945c0,272 152,414 366,414zm-853 -130l0 0 0 -1229 -119 0 0 1342 609 0 0 -113 -490 0zm-676 23l0 0c-174,0 -264,-119 -264,-326l0 -510c0,-207 90,-326 264,-326 174,0 265,119 265,326l0 510c0,207 -91,326 -265,326zm0 115l0 0c242,0 385,-171 385,-441l0 -510c0,-270 -143,-441 -385,-441 -241,0 -385,171 -385,441l0 510c0,270 144,441 385,441zm-861 -137l0 0 -227 0 0 -521 206 0c168,0 281,92 281,267 0,176 -86,254 -260,254zm-31 -1119l0 0c159,0 236,75 236,238 0,165 -77,249 -232,249l-200 0 0 -487 196 0zm182 535l0 0c105,-29 174,-130 174,-297 0,-222 -132,-349 -356,-349l-314 0 0 1342 345 0c237,0 381,-127 381,-366 0,-181 -88,-297 -230,-330z"/>
 </g>
</svg>
